<svg xmlns="http://www.w3.org/2000/svg" xmlns:svgjs="http://svgjs.com/svgjs" xmlns:xlink="http://www.w3.org/1999/xlink" width="288" height="288"><svg xmlns="http://www.w3.org/2000/svg" width="288" height="288" viewBox="0 0 32 32"><defs><linearGradient id="a" x1="-645.732" x2="-654.59" y1="839.188" y2="839.25" gradientTransform="matrix(-.977 -.323 -.29 .877 -375.944 -928.287)" gradientUnits="userSpaceOnUse"><stop class="stopColor999875 svgShape" offset=".231"/><stop class="stopColor9b9977 svgShape" offset=".563"/><stop class="stopColora09f7e svgShape" offset=".683"/><stop class="stopColora9a889 svgShape" offset=".768"/><stop class="stopColorb7b69a svgShape" offset=".837"/><stop class="stopColorc9c7b0 svgShape" offset=".896" stop-color="#0a0a0a"/><stop class="stopColordeddcb svgShape" offset=".948"/><stop class="stopColorf8f6eb svgShape" offset=".994"/><stop class="stopColorfbf9ef svgShape" offset="1"/></linearGradient><linearGradient id="b" x1="-644.287" x2="-657.028" y1="823.405" y2="845.476" gradientTransform="matrix(-.977 -.323 -.29 .877 -375.944 -928.287)" gradientUnits="userSpaceOnUse"><stop class="stopColor48a547 svgShape" offset="0"/><stop class="stopColor3f9143 svgShape" offset="1"/></linearGradient><linearGradient id="c" x1="-643.386" x2="-652.418" y1="839.485" y2="833.417" gradientTransform="matrix(-.977 -.323 -.29 .877 -375.944 -928.287)" gradientUnits="userSpaceOnUse"><stop class="stopColor41a247 svgShape" offset="0"/><stop class="stopColor4ba74b svgShape" offset=".352"/><stop class="stopColor67b554 svgShape" offset=".956"/><stop class="stopColor69b655 svgShape" offset="1"/></linearGradient></defs><path fill="url(#a)" d="M16.62,30l-.751-.249s.1-3.8-1.275-4.067c-.9-1.048.133-44.741,3.423-.149a2.712,2.712,0,0,0-1.333,1.523A14.1,14.1,0,0,0,16.62,30Z"/><path fill="url(#b)" d="M17.026,26.329a13.223,13.223,0,0,0,5-13.225C20.556,6.619,17.075,4.487,16.7,3.673a9.792,9.792,0,0,1-.825-1.6l.277,18.069S15.578,25.664,17.026,26.329Z"/><path fill="url(#c)" d="M15.487,26.569S9.366,22.4,9.72,15.025A15.54,15.54,0,0,1,15.239,3.377,1.725,1.725,0,0,0,15.846,2c.381.82.319,12.243.359,13.579C16.36,20.776,15.916,25.588,15.487,26.569Z"/></svg></svg>